%TF.GenerationSoftware,KiCad,Pcbnew,8.0.3-8.0.3-0~ubuntu20.04.1*%
%TF.CreationDate,2024-07-19T14:21:33-04:00*%
%TF.ProjectId,schematics,73636865-6d61-4746-9963-732e6b696361,rev?*%
%TF.SameCoordinates,Original*%
%TF.FileFunction,Copper,L2,Bot*%
%TF.FilePolarity,Positive*%
%FSLAX46Y46*%
G04 Gerber Fmt 4.6, Leading zero omitted, Abs format (unit mm)*
G04 Created by KiCad (PCBNEW 8.0.3-8.0.3-0~ubuntu20.04.1) date 2024-07-19 14:21:33*
%MOMM*%
%LPD*%
G01*
G04 APERTURE LIST*
%TA.AperFunction,ComponentPad*%
%ADD10C,1.600000*%
%TD*%
%TA.AperFunction,ComponentPad*%
%ADD11O,1.600000X1.600000*%
%TD*%
%TA.AperFunction,ComponentPad*%
%ADD12R,1.700000X1.700000*%
%TD*%
%TA.AperFunction,ComponentPad*%
%ADD13O,1.700000X1.700000*%
%TD*%
%TA.AperFunction,ComponentPad*%
%ADD14R,1.600000X1.600000*%
%TD*%
%TA.AperFunction,ComponentPad*%
%ADD15R,1.800000X1.800000*%
%TD*%
%TA.AperFunction,ComponentPad*%
%ADD16C,1.800000*%
%TD*%
%TA.AperFunction,ComponentPad*%
%ADD17R,3.500000X3.500000*%
%TD*%
%TA.AperFunction,ComponentPad*%
%ADD18C,3.500000*%
%TD*%
%TA.AperFunction,ViaPad*%
%ADD19C,0.600000*%
%TD*%
%TA.AperFunction,Conductor*%
%ADD20C,0.200000*%
%TD*%
G04 APERTURE END LIST*
D10*
%TO.P,R_C1,1*%
%TO.N,Net-(Q1-C)*%
X105664000Y-145034000D03*
D11*
%TO.P,R_C1,2*%
%TO.N,Net-(Q4-E)*%
X105664000Y-142494000D03*
%TD*%
D12*
%TO.P,J1,1,Pin_1*%
%TO.N,GND*%
X88900000Y-158496000D03*
D13*
%TO.P,J1,2,Pin_2*%
%TO.N,unconnected-(J1-Pin_2-Pad2)*%
X91440000Y-158496000D03*
%TO.P,J1,3,Pin_3*%
%TO.N,Net-(BT1-+)*%
X93980000Y-158496000D03*
%TO.P,J1,4,Pin_4*%
%TO.N,Net-(J1-Pin_4)*%
X96520000Y-158496000D03*
%TO.P,J1,5,Pin_5*%
%TO.N,Net-(J1-Pin_5)*%
X99060000Y-158496000D03*
%TO.P,J1,6,Pin_6*%
%TO.N,unconnected-(J1-Pin_6-Pad6)*%
X101600000Y-158496000D03*
%TD*%
D14*
%TO.P,C1,1*%
%TO.N,Net-(Q1-C)*%
X101279888Y-152146000D03*
D10*
%TO.P,C1,2*%
%TO.N,GND*%
X103279888Y-152146000D03*
%TD*%
D15*
%TO.P,D1,1,K*%
%TO.N,GND*%
X76200000Y-146324000D03*
D16*
%TO.P,D1,2,A*%
%TO.N,Net-(D1-A)*%
X76200000Y-148864000D03*
%TD*%
D15*
%TO.P,D2,1,K*%
%TO.N,GND*%
X76200000Y-139974000D03*
D16*
%TO.P,D2,2,A*%
%TO.N,Net-(D2-A)*%
X76200000Y-142514000D03*
%TD*%
D15*
%TO.P,Q3,1,C*%
%TO.N,VCC*%
X76200000Y-156230000D03*
D16*
%TO.P,Q3,2,E*%
%TO.N,Net-(Q3-E)*%
X76200000Y-158770000D03*
%TD*%
D17*
%TO.P,BT1,1,+*%
%TO.N,Net-(BT1-+)*%
X114300000Y-149500000D03*
D18*
%TO.P,BT1,2,-*%
%TO.N,GND*%
X186300000Y-149500000D03*
%TD*%
D19*
%TO.N,GND*%
X106778500Y-158778500D03*
X105664000Y-149860000D03*
X103632000Y-147828000D03*
X104648000Y-156591000D03*
%TO.N,VCC*%
X92583000Y-156210000D03*
X98234500Y-151765000D03*
%TO.N,Net-(Q3-E)*%
X87376000Y-146050000D03*
%TD*%
D20*
%TO.N,GND*%
X103632000Y-147828000D02*
X105664000Y-149860000D01*
X106778500Y-158778500D02*
X104648000Y-156648000D01*
X104648000Y-156648000D02*
X104648000Y-156591000D01*
%TO.N,VCC*%
X94615000Y-156210000D02*
X92583000Y-156210000D01*
X98234500Y-151765000D02*
X98234500Y-152590500D01*
X98234500Y-152590500D02*
X94615000Y-156210000D01*
%TO.N,Net-(Q3-E)*%
X86868000Y-156565600D02*
X86868000Y-146558000D01*
X76200000Y-158770000D02*
X84663600Y-158770000D01*
X84663600Y-158770000D02*
X86868000Y-156565600D01*
X86868000Y-146558000D02*
X87376000Y-146050000D01*
%TD*%
M02*
