%TF.GenerationSoftware,KiCad,Pcbnew,8.0.3-8.0.3-0~ubuntu20.04.1*%
%TF.CreationDate,2024-07-19T14:21:33-04:00*%
%TF.ProjectId,schematics,73636865-6d61-4746-9963-732e6b696361,rev?*%
%TF.SameCoordinates,Original*%
%TF.FileFunction,Soldermask,Top*%
%TF.FilePolarity,Negative*%
%FSLAX46Y46*%
G04 Gerber Fmt 4.6, Leading zero omitted, Abs format (unit mm)*
G04 Created by KiCad (PCBNEW 8.0.3-8.0.3-0~ubuntu20.04.1) date 2024-07-19 14:21:33*
%MOMM*%
%LPD*%
G01*
G04 APERTURE LIST*
G04 Aperture macros list*
%AMRoundRect*
0 Rectangle with rounded corners*
0 $1 Rounding radius*
0 $2 $3 $4 $5 $6 $7 $8 $9 X,Y pos of 4 corners*
0 Add a 4 corners polygon primitive as box body*
4,1,4,$2,$3,$4,$5,$6,$7,$8,$9,$2,$3,0*
0 Add four circle primitives for the rounded corners*
1,1,$1+$1,$2,$3*
1,1,$1+$1,$4,$5*
1,1,$1+$1,$6,$7*
1,1,$1+$1,$8,$9*
0 Add four rect primitives between the rounded corners*
20,1,$1+$1,$2,$3,$4,$5,0*
20,1,$1+$1,$4,$5,$6,$7,0*
20,1,$1+$1,$6,$7,$8,$9,0*
20,1,$1+$1,$8,$9,$2,$3,0*%
G04 Aperture macros list end*
%ADD10C,1.600000*%
%ADD11O,1.600000X1.600000*%
%ADD12RoundRect,0.150000X-0.587500X-0.150000X0.587500X-0.150000X0.587500X0.150000X-0.587500X0.150000X0*%
%ADD13R,1.700000X1.700000*%
%ADD14O,1.700000X1.700000*%
%ADD15RoundRect,0.237500X-0.250000X-0.237500X0.250000X-0.237500X0.250000X0.237500X-0.250000X0.237500X0*%
%ADD16R,1.600000X1.600000*%
%ADD17R,1.000000X1.600000*%
%ADD18R,1.800000X1.800000*%
%ADD19C,1.800000*%
%ADD20RoundRect,0.150000X0.825000X0.150000X-0.825000X0.150000X-0.825000X-0.150000X0.825000X-0.150000X0*%
%ADD21RoundRect,0.250000X-0.475000X0.337500X-0.475000X-0.337500X0.475000X-0.337500X0.475000X0.337500X0*%
%ADD22RoundRect,0.150000X0.150000X-0.587500X0.150000X0.587500X-0.150000X0.587500X-0.150000X-0.587500X0*%
%ADD23C,3.200000*%
%ADD24R,3.500000X3.500000*%
%ADD25C,3.500000*%
G04 APERTURE END LIST*
D10*
%TO.C,R_C1*%
X105664000Y-145034000D03*
D11*
X105664000Y-142494000D03*
%TD*%
D12*
%TO.C,Q1*%
X99217000Y-144719000D03*
X99217000Y-146619000D03*
X101092000Y-145669000D03*
%TD*%
D13*
%TO.C,J1*%
X88900000Y-158496000D03*
D14*
X91440000Y-158496000D03*
X93980000Y-158496000D03*
X96520000Y-158496000D03*
X99060000Y-158496000D03*
X101600000Y-158496000D03*
%TD*%
D12*
%TO.C,Q4*%
X99217000Y-140528000D03*
X99217000Y-142428000D03*
X101092000Y-141478000D03*
%TD*%
D15*
%TO.C,R5*%
X84535000Y-142240000D03*
X86360000Y-142240000D03*
%TD*%
D16*
%TO.C,C1*%
X101279888Y-152146000D03*
D10*
X103279888Y-152146000D03*
%TD*%
D15*
%TO.C,R4*%
X80621500Y-140970000D03*
X82446500Y-140970000D03*
%TD*%
D17*
%TO.C,SW1*%
X90210000Y-151200000D03*
X92710000Y-151200000D03*
X95210000Y-151200000D03*
X90210000Y-153600000D03*
X92710000Y-153600000D03*
X95210000Y-153600000D03*
%TD*%
D18*
%TO.C,D1*%
X76200000Y-146324000D03*
D19*
X76200000Y-148864000D03*
%TD*%
D20*
%TO.C,U1*%
X95185000Y-147320000D03*
X95185000Y-146050000D03*
X95185000Y-144780000D03*
X95185000Y-143510000D03*
X95185000Y-142240000D03*
X95185000Y-140970000D03*
X95185000Y-139700000D03*
X90235000Y-139700000D03*
X90235000Y-140970000D03*
X90235000Y-142240000D03*
X90235000Y-143510000D03*
X90235000Y-144780000D03*
X90235000Y-146050000D03*
X90235000Y-147320000D03*
%TD*%
D18*
%TO.C,D2*%
X76200000Y-139974000D03*
D19*
X76200000Y-142514000D03*
%TD*%
D21*
%TO.C,C4*%
X82550000Y-156210000D03*
X82550000Y-158285000D03*
%TD*%
D18*
%TO.C,Q3*%
X76200000Y-156230000D03*
D19*
X76200000Y-158770000D03*
%TD*%
D21*
%TO.C,C2*%
X109347000Y-154283500D03*
X109347000Y-156358500D03*
%TD*%
D15*
%TO.C,R3*%
X84535000Y-139700000D03*
X86360000Y-139700000D03*
%TD*%
D22*
%TO.C,Q5*%
X107381000Y-151862000D03*
X109281000Y-151862000D03*
X108331000Y-149987000D03*
%TD*%
D23*
%TO.C,BT1*%
X122945000Y-149500000D03*
X178555000Y-149500000D03*
D24*
X114300000Y-149500000D03*
D25*
X186300000Y-149500000D03*
%TD*%
M02*
