%TF.GenerationSoftware,KiCad,Pcbnew,8.0.3-8.0.3-0~ubuntu20.04.1*%
%TF.CreationDate,2024-07-19T14:21:33-04:00*%
%TF.ProjectId,schematics,73636865-6d61-4746-9963-732e6b696361,rev?*%
%TF.SameCoordinates,Original*%
%TF.FileFunction,Legend,Bot*%
%TF.FilePolarity,Positive*%
%FSLAX46Y46*%
G04 Gerber Fmt 4.6, Leading zero omitted, Abs format (unit mm)*
G04 Created by KiCad (PCBNEW 8.0.3-8.0.3-0~ubuntu20.04.1) date 2024-07-19 14:21:33*
%MOMM*%
%LPD*%
G01*
G04 APERTURE LIST*
%ADD10C,0.150000*%
G04 APERTURE END LIST*
D10*
X173270363Y-146462424D02*
X172984649Y-146557662D01*
X172984649Y-146557662D02*
X172508458Y-146557662D01*
X172508458Y-146557662D02*
X172317982Y-146462424D01*
X172317982Y-146462424D02*
X172222744Y-146367185D01*
X172222744Y-146367185D02*
X172127506Y-146176709D01*
X172127506Y-146176709D02*
X172127506Y-145986233D01*
X172127506Y-145986233D02*
X172222744Y-145795757D01*
X172222744Y-145795757D02*
X172317982Y-145700519D01*
X172317982Y-145700519D02*
X172508458Y-145605281D01*
X172508458Y-145605281D02*
X172889411Y-145510043D01*
X172889411Y-145510043D02*
X173079887Y-145414804D01*
X173079887Y-145414804D02*
X173175125Y-145319566D01*
X173175125Y-145319566D02*
X173270363Y-145129090D01*
X173270363Y-145129090D02*
X173270363Y-144938614D01*
X173270363Y-144938614D02*
X173175125Y-144748138D01*
X173175125Y-144748138D02*
X173079887Y-144652900D01*
X173079887Y-144652900D02*
X172889411Y-144557662D01*
X172889411Y-144557662D02*
X172413220Y-144557662D01*
X172413220Y-144557662D02*
X172127506Y-144652900D01*
X171365601Y-146462424D02*
X171079887Y-146557662D01*
X171079887Y-146557662D02*
X170603696Y-146557662D01*
X170603696Y-146557662D02*
X170413220Y-146462424D01*
X170413220Y-146462424D02*
X170317982Y-146367185D01*
X170317982Y-146367185D02*
X170222744Y-146176709D01*
X170222744Y-146176709D02*
X170222744Y-145986233D01*
X170222744Y-145986233D02*
X170317982Y-145795757D01*
X170317982Y-145795757D02*
X170413220Y-145700519D01*
X170413220Y-145700519D02*
X170603696Y-145605281D01*
X170603696Y-145605281D02*
X170984649Y-145510043D01*
X170984649Y-145510043D02*
X171175125Y-145414804D01*
X171175125Y-145414804D02*
X171270363Y-145319566D01*
X171270363Y-145319566D02*
X171365601Y-145129090D01*
X171365601Y-145129090D02*
X171365601Y-144938614D01*
X171365601Y-144938614D02*
X171270363Y-144748138D01*
X171270363Y-144748138D02*
X171175125Y-144652900D01*
X171175125Y-144652900D02*
X170984649Y-144557662D01*
X170984649Y-144557662D02*
X170508458Y-144557662D01*
X170508458Y-144557662D02*
X170222744Y-144652900D01*
X168222744Y-146367185D02*
X168317982Y-146462424D01*
X168317982Y-146462424D02*
X168603696Y-146557662D01*
X168603696Y-146557662D02*
X168794172Y-146557662D01*
X168794172Y-146557662D02*
X169079887Y-146462424D01*
X169079887Y-146462424D02*
X169270363Y-146271947D01*
X169270363Y-146271947D02*
X169365601Y-146081471D01*
X169365601Y-146081471D02*
X169460839Y-145700519D01*
X169460839Y-145700519D02*
X169460839Y-145414804D01*
X169460839Y-145414804D02*
X169365601Y-145033852D01*
X169365601Y-145033852D02*
X169270363Y-144843376D01*
X169270363Y-144843376D02*
X169079887Y-144652900D01*
X169079887Y-144652900D02*
X168794172Y-144557662D01*
X168794172Y-144557662D02*
X168603696Y-144557662D01*
X168603696Y-144557662D02*
X168317982Y-144652900D01*
X168317982Y-144652900D02*
X168222744Y-144748138D01*
X167460839Y-146462424D02*
X167175125Y-146557662D01*
X167175125Y-146557662D02*
X166698934Y-146557662D01*
X166698934Y-146557662D02*
X166508458Y-146462424D01*
X166508458Y-146462424D02*
X166413220Y-146367185D01*
X166413220Y-146367185D02*
X166317982Y-146176709D01*
X166317982Y-146176709D02*
X166317982Y-145986233D01*
X166317982Y-145986233D02*
X166413220Y-145795757D01*
X166413220Y-145795757D02*
X166508458Y-145700519D01*
X166508458Y-145700519D02*
X166698934Y-145605281D01*
X166698934Y-145605281D02*
X167079887Y-145510043D01*
X167079887Y-145510043D02*
X167270363Y-145414804D01*
X167270363Y-145414804D02*
X167365601Y-145319566D01*
X167365601Y-145319566D02*
X167460839Y-145129090D01*
X167460839Y-145129090D02*
X167460839Y-144938614D01*
X167460839Y-144938614D02*
X167365601Y-144748138D01*
X167365601Y-144748138D02*
X167270363Y-144652900D01*
X167270363Y-144652900D02*
X167079887Y-144557662D01*
X167079887Y-144557662D02*
X166603696Y-144557662D01*
X166603696Y-144557662D02*
X166317982Y-144652900D01*
X165460839Y-145795757D02*
X163937030Y-145795757D01*
X163079887Y-145986233D02*
X162127506Y-145986233D01*
X163270363Y-146557662D02*
X162603697Y-144557662D01*
X162603697Y-144557662D02*
X161937030Y-146557662D01*
X161270363Y-146557662D02*
X161270363Y-145224328D01*
X161270363Y-145605281D02*
X161175125Y-145414804D01*
X161175125Y-145414804D02*
X161079887Y-145319566D01*
X161079887Y-145319566D02*
X160889411Y-145224328D01*
X160889411Y-145224328D02*
X160698934Y-145224328D01*
X159175125Y-146557662D02*
X159175125Y-144557662D01*
X159175125Y-146462424D02*
X159365601Y-146557662D01*
X159365601Y-146557662D02*
X159746554Y-146557662D01*
X159746554Y-146557662D02*
X159937030Y-146462424D01*
X159937030Y-146462424D02*
X160032268Y-146367185D01*
X160032268Y-146367185D02*
X160127506Y-146176709D01*
X160127506Y-146176709D02*
X160127506Y-145605281D01*
X160127506Y-145605281D02*
X160032268Y-145414804D01*
X160032268Y-145414804D02*
X159937030Y-145319566D01*
X159937030Y-145319566D02*
X159746554Y-145224328D01*
X159746554Y-145224328D02*
X159365601Y-145224328D01*
X159365601Y-145224328D02*
X159175125Y-145319566D01*
X157365601Y-145224328D02*
X157365601Y-146557662D01*
X158222744Y-145224328D02*
X158222744Y-146271947D01*
X158222744Y-146271947D02*
X158127506Y-146462424D01*
X158127506Y-146462424D02*
X157937030Y-146557662D01*
X157937030Y-146557662D02*
X157651315Y-146557662D01*
X157651315Y-146557662D02*
X157460839Y-146462424D01*
X157460839Y-146462424D02*
X157365601Y-146367185D01*
X156413220Y-146557662D02*
X156413220Y-145224328D01*
X156413220Y-144557662D02*
X156508458Y-144652900D01*
X156508458Y-144652900D02*
X156413220Y-144748138D01*
X156413220Y-144748138D02*
X156317982Y-144652900D01*
X156317982Y-144652900D02*
X156413220Y-144557662D01*
X156413220Y-144557662D02*
X156413220Y-144748138D01*
X155460839Y-145224328D02*
X155460839Y-146557662D01*
X155460839Y-145414804D02*
X155365601Y-145319566D01*
X155365601Y-145319566D02*
X155175125Y-145224328D01*
X155175125Y-145224328D02*
X154889410Y-145224328D01*
X154889410Y-145224328D02*
X154698934Y-145319566D01*
X154698934Y-145319566D02*
X154603696Y-145510043D01*
X154603696Y-145510043D02*
X154603696Y-146557662D01*
X153365601Y-146557662D02*
X153556077Y-146462424D01*
X153556077Y-146462424D02*
X153651315Y-146367185D01*
X153651315Y-146367185D02*
X153746553Y-146176709D01*
X153746553Y-146176709D02*
X153746553Y-145605281D01*
X153746553Y-145605281D02*
X153651315Y-145414804D01*
X153651315Y-145414804D02*
X153556077Y-145319566D01*
X153556077Y-145319566D02*
X153365601Y-145224328D01*
X153365601Y-145224328D02*
X153079886Y-145224328D01*
X153079886Y-145224328D02*
X152889410Y-145319566D01*
X152889410Y-145319566D02*
X152794172Y-145414804D01*
X152794172Y-145414804D02*
X152698934Y-145605281D01*
X152698934Y-145605281D02*
X152698934Y-146176709D01*
X152698934Y-146176709D02*
X152794172Y-146367185D01*
X152794172Y-146367185D02*
X152889410Y-146462424D01*
X152889410Y-146462424D02*
X153079886Y-146557662D01*
X153079886Y-146557662D02*
X153365601Y-146557662D01*
X151841791Y-145795757D02*
X150317982Y-145795757D01*
X148222744Y-146367185D02*
X148317982Y-146462424D01*
X148317982Y-146462424D02*
X148603696Y-146557662D01*
X148603696Y-146557662D02*
X148794172Y-146557662D01*
X148794172Y-146557662D02*
X149079887Y-146462424D01*
X149079887Y-146462424D02*
X149270363Y-146271947D01*
X149270363Y-146271947D02*
X149365601Y-146081471D01*
X149365601Y-146081471D02*
X149460839Y-145700519D01*
X149460839Y-145700519D02*
X149460839Y-145414804D01*
X149460839Y-145414804D02*
X149365601Y-145033852D01*
X149365601Y-145033852D02*
X149270363Y-144843376D01*
X149270363Y-144843376D02*
X149079887Y-144652900D01*
X149079887Y-144652900D02*
X148794172Y-144557662D01*
X148794172Y-144557662D02*
X148603696Y-144557662D01*
X148603696Y-144557662D02*
X148317982Y-144652900D01*
X148317982Y-144652900D02*
X148222744Y-144748138D01*
X147079887Y-146557662D02*
X147270363Y-146462424D01*
X147270363Y-146462424D02*
X147365601Y-146367185D01*
X147365601Y-146367185D02*
X147460839Y-146176709D01*
X147460839Y-146176709D02*
X147460839Y-145605281D01*
X147460839Y-145605281D02*
X147365601Y-145414804D01*
X147365601Y-145414804D02*
X147270363Y-145319566D01*
X147270363Y-145319566D02*
X147079887Y-145224328D01*
X147079887Y-145224328D02*
X146794172Y-145224328D01*
X146794172Y-145224328D02*
X146603696Y-145319566D01*
X146603696Y-145319566D02*
X146508458Y-145414804D01*
X146508458Y-145414804D02*
X146413220Y-145605281D01*
X146413220Y-145605281D02*
X146413220Y-146176709D01*
X146413220Y-146176709D02*
X146508458Y-146367185D01*
X146508458Y-146367185D02*
X146603696Y-146462424D01*
X146603696Y-146462424D02*
X146794172Y-146557662D01*
X146794172Y-146557662D02*
X147079887Y-146557662D01*
X145556077Y-145224328D02*
X145556077Y-146557662D01*
X145556077Y-145414804D02*
X145460839Y-145319566D01*
X145460839Y-145319566D02*
X145270363Y-145224328D01*
X145270363Y-145224328D02*
X144984648Y-145224328D01*
X144984648Y-145224328D02*
X144794172Y-145319566D01*
X144794172Y-145319566D02*
X144698934Y-145510043D01*
X144698934Y-145510043D02*
X144698934Y-146557662D01*
X144032267Y-145224328D02*
X143270363Y-145224328D01*
X143746553Y-144557662D02*
X143746553Y-146271947D01*
X143746553Y-146271947D02*
X143651315Y-146462424D01*
X143651315Y-146462424D02*
X143460839Y-146557662D01*
X143460839Y-146557662D02*
X143270363Y-146557662D01*
X141841791Y-146462424D02*
X142032267Y-146557662D01*
X142032267Y-146557662D02*
X142413220Y-146557662D01*
X142413220Y-146557662D02*
X142603696Y-146462424D01*
X142603696Y-146462424D02*
X142698934Y-146271947D01*
X142698934Y-146271947D02*
X142698934Y-145510043D01*
X142698934Y-145510043D02*
X142603696Y-145319566D01*
X142603696Y-145319566D02*
X142413220Y-145224328D01*
X142413220Y-145224328D02*
X142032267Y-145224328D01*
X142032267Y-145224328D02*
X141841791Y-145319566D01*
X141841791Y-145319566D02*
X141746553Y-145510043D01*
X141746553Y-145510043D02*
X141746553Y-145700519D01*
X141746553Y-145700519D02*
X142698934Y-145890995D01*
X140984648Y-146462424D02*
X140794172Y-146557662D01*
X140794172Y-146557662D02*
X140413220Y-146557662D01*
X140413220Y-146557662D02*
X140222743Y-146462424D01*
X140222743Y-146462424D02*
X140127505Y-146271947D01*
X140127505Y-146271947D02*
X140127505Y-146176709D01*
X140127505Y-146176709D02*
X140222743Y-145986233D01*
X140222743Y-145986233D02*
X140413220Y-145890995D01*
X140413220Y-145890995D02*
X140698934Y-145890995D01*
X140698934Y-145890995D02*
X140889410Y-145795757D01*
X140889410Y-145795757D02*
X140984648Y-145605281D01*
X140984648Y-145605281D02*
X140984648Y-145510043D01*
X140984648Y-145510043D02*
X140889410Y-145319566D01*
X140889410Y-145319566D02*
X140698934Y-145224328D01*
X140698934Y-145224328D02*
X140413220Y-145224328D01*
X140413220Y-145224328D02*
X140222743Y-145319566D01*
X139556076Y-145224328D02*
X138794172Y-145224328D01*
X139270362Y-144557662D02*
X139270362Y-146271947D01*
X139270362Y-146271947D02*
X139175124Y-146462424D01*
X139175124Y-146462424D02*
X138984648Y-146557662D01*
X138984648Y-146557662D02*
X138794172Y-146557662D01*
X136698933Y-144748138D02*
X136603695Y-144652900D01*
X136603695Y-144652900D02*
X136413219Y-144557662D01*
X136413219Y-144557662D02*
X135937028Y-144557662D01*
X135937028Y-144557662D02*
X135746552Y-144652900D01*
X135746552Y-144652900D02*
X135651314Y-144748138D01*
X135651314Y-144748138D02*
X135556076Y-144938614D01*
X135556076Y-144938614D02*
X135556076Y-145129090D01*
X135556076Y-145129090D02*
X135651314Y-145414804D01*
X135651314Y-145414804D02*
X136794171Y-146557662D01*
X136794171Y-146557662D02*
X135556076Y-146557662D01*
X134317981Y-144557662D02*
X134127504Y-144557662D01*
X134127504Y-144557662D02*
X133937028Y-144652900D01*
X133937028Y-144652900D02*
X133841790Y-144748138D01*
X133841790Y-144748138D02*
X133746552Y-144938614D01*
X133746552Y-144938614D02*
X133651314Y-145319566D01*
X133651314Y-145319566D02*
X133651314Y-145795757D01*
X133651314Y-145795757D02*
X133746552Y-146176709D01*
X133746552Y-146176709D02*
X133841790Y-146367185D01*
X133841790Y-146367185D02*
X133937028Y-146462424D01*
X133937028Y-146462424D02*
X134127504Y-146557662D01*
X134127504Y-146557662D02*
X134317981Y-146557662D01*
X134317981Y-146557662D02*
X134508457Y-146462424D01*
X134508457Y-146462424D02*
X134603695Y-146367185D01*
X134603695Y-146367185D02*
X134698933Y-146176709D01*
X134698933Y-146176709D02*
X134794171Y-145795757D01*
X134794171Y-145795757D02*
X134794171Y-145319566D01*
X134794171Y-145319566D02*
X134698933Y-144938614D01*
X134698933Y-144938614D02*
X134603695Y-144748138D01*
X134603695Y-144748138D02*
X134508457Y-144652900D01*
X134508457Y-144652900D02*
X134317981Y-144557662D01*
X132889409Y-144748138D02*
X132794171Y-144652900D01*
X132794171Y-144652900D02*
X132603695Y-144557662D01*
X132603695Y-144557662D02*
X132127504Y-144557662D01*
X132127504Y-144557662D02*
X131937028Y-144652900D01*
X131937028Y-144652900D02*
X131841790Y-144748138D01*
X131841790Y-144748138D02*
X131746552Y-144938614D01*
X131746552Y-144938614D02*
X131746552Y-145129090D01*
X131746552Y-145129090D02*
X131841790Y-145414804D01*
X131841790Y-145414804D02*
X132984647Y-146557662D01*
X132984647Y-146557662D02*
X131746552Y-146557662D01*
X130032266Y-145224328D02*
X130032266Y-146557662D01*
X130508457Y-144462424D02*
X130984647Y-145890995D01*
X130984647Y-145890995D02*
X129746552Y-145890995D01*
X127556075Y-146462424D02*
X127270361Y-146557662D01*
X127270361Y-146557662D02*
X126794170Y-146557662D01*
X126794170Y-146557662D02*
X126603694Y-146462424D01*
X126603694Y-146462424D02*
X126508456Y-146367185D01*
X126508456Y-146367185D02*
X126413218Y-146176709D01*
X126413218Y-146176709D02*
X126413218Y-145986233D01*
X126413218Y-145986233D02*
X126508456Y-145795757D01*
X126508456Y-145795757D02*
X126603694Y-145700519D01*
X126603694Y-145700519D02*
X126794170Y-145605281D01*
X126794170Y-145605281D02*
X127175123Y-145510043D01*
X127175123Y-145510043D02*
X127365599Y-145414804D01*
X127365599Y-145414804D02*
X127460837Y-145319566D01*
X127460837Y-145319566D02*
X127556075Y-145129090D01*
X127556075Y-145129090D02*
X127556075Y-144938614D01*
X127556075Y-144938614D02*
X127460837Y-144748138D01*
X127460837Y-144748138D02*
X127365599Y-144652900D01*
X127365599Y-144652900D02*
X127175123Y-144557662D01*
X127175123Y-144557662D02*
X126698932Y-144557662D01*
X126698932Y-144557662D02*
X126413218Y-144652900D01*
X124698932Y-145224328D02*
X124698932Y-146557662D01*
X125556075Y-145224328D02*
X125556075Y-146271947D01*
X125556075Y-146271947D02*
X125460837Y-146462424D01*
X125460837Y-146462424D02*
X125270361Y-146557662D01*
X125270361Y-146557662D02*
X124984646Y-146557662D01*
X124984646Y-146557662D02*
X124794170Y-146462424D01*
X124794170Y-146462424D02*
X124698932Y-146367185D01*
X123746551Y-146557662D02*
X123746551Y-144557662D01*
X123746551Y-145319566D02*
X123556075Y-145224328D01*
X123556075Y-145224328D02*
X123175122Y-145224328D01*
X123175122Y-145224328D02*
X122984646Y-145319566D01*
X122984646Y-145319566D02*
X122889408Y-145414804D01*
X122889408Y-145414804D02*
X122794170Y-145605281D01*
X122794170Y-145605281D02*
X122794170Y-146176709D01*
X122794170Y-146176709D02*
X122889408Y-146367185D01*
X122889408Y-146367185D02*
X122984646Y-146462424D01*
X122984646Y-146462424D02*
X123175122Y-146557662D01*
X123175122Y-146557662D02*
X123556075Y-146557662D01*
X123556075Y-146557662D02*
X123746551Y-146462424D01*
X121937027Y-146557662D02*
X121937027Y-145224328D01*
X121937027Y-145414804D02*
X121841789Y-145319566D01*
X121841789Y-145319566D02*
X121651313Y-145224328D01*
X121651313Y-145224328D02*
X121365598Y-145224328D01*
X121365598Y-145224328D02*
X121175122Y-145319566D01*
X121175122Y-145319566D02*
X121079884Y-145510043D01*
X121079884Y-145510043D02*
X121079884Y-146557662D01*
X121079884Y-145510043D02*
X120984646Y-145319566D01*
X120984646Y-145319566D02*
X120794170Y-145224328D01*
X120794170Y-145224328D02*
X120508456Y-145224328D01*
X120508456Y-145224328D02*
X120317979Y-145319566D01*
X120317979Y-145319566D02*
X120222741Y-145510043D01*
X120222741Y-145510043D02*
X120222741Y-146557662D01*
X119270360Y-146557662D02*
X119270360Y-145224328D01*
X119270360Y-144557662D02*
X119365598Y-144652900D01*
X119365598Y-144652900D02*
X119270360Y-144748138D01*
X119270360Y-144748138D02*
X119175122Y-144652900D01*
X119175122Y-144652900D02*
X119270360Y-144557662D01*
X119270360Y-144557662D02*
X119270360Y-144748138D01*
X118413217Y-146462424D02*
X118222741Y-146557662D01*
X118222741Y-146557662D02*
X117841789Y-146557662D01*
X117841789Y-146557662D02*
X117651312Y-146462424D01*
X117651312Y-146462424D02*
X117556074Y-146271947D01*
X117556074Y-146271947D02*
X117556074Y-146176709D01*
X117556074Y-146176709D02*
X117651312Y-145986233D01*
X117651312Y-145986233D02*
X117841789Y-145890995D01*
X117841789Y-145890995D02*
X118127503Y-145890995D01*
X118127503Y-145890995D02*
X118317979Y-145795757D01*
X118317979Y-145795757D02*
X118413217Y-145605281D01*
X118413217Y-145605281D02*
X118413217Y-145510043D01*
X118413217Y-145510043D02*
X118317979Y-145319566D01*
X118317979Y-145319566D02*
X118127503Y-145224328D01*
X118127503Y-145224328D02*
X117841789Y-145224328D01*
X117841789Y-145224328D02*
X117651312Y-145319566D01*
X116794169Y-146462424D02*
X116603693Y-146557662D01*
X116603693Y-146557662D02*
X116222741Y-146557662D01*
X116222741Y-146557662D02*
X116032264Y-146462424D01*
X116032264Y-146462424D02*
X115937026Y-146271947D01*
X115937026Y-146271947D02*
X115937026Y-146176709D01*
X115937026Y-146176709D02*
X116032264Y-145986233D01*
X116032264Y-145986233D02*
X116222741Y-145890995D01*
X116222741Y-145890995D02*
X116508455Y-145890995D01*
X116508455Y-145890995D02*
X116698931Y-145795757D01*
X116698931Y-145795757D02*
X116794169Y-145605281D01*
X116794169Y-145605281D02*
X116794169Y-145510043D01*
X116794169Y-145510043D02*
X116698931Y-145319566D01*
X116698931Y-145319566D02*
X116508455Y-145224328D01*
X116508455Y-145224328D02*
X116222741Y-145224328D01*
X116222741Y-145224328D02*
X116032264Y-145319566D01*
X115079883Y-146557662D02*
X115079883Y-145224328D01*
X115079883Y-144557662D02*
X115175121Y-144652900D01*
X115175121Y-144652900D02*
X115079883Y-144748138D01*
X115079883Y-144748138D02*
X114984645Y-144652900D01*
X114984645Y-144652900D02*
X115079883Y-144557662D01*
X115079883Y-144557662D02*
X115079883Y-144748138D01*
X113841788Y-146557662D02*
X114032264Y-146462424D01*
X114032264Y-146462424D02*
X114127502Y-146367185D01*
X114127502Y-146367185D02*
X114222740Y-146176709D01*
X114222740Y-146176709D02*
X114222740Y-145605281D01*
X114222740Y-145605281D02*
X114127502Y-145414804D01*
X114127502Y-145414804D02*
X114032264Y-145319566D01*
X114032264Y-145319566D02*
X113841788Y-145224328D01*
X113841788Y-145224328D02*
X113556073Y-145224328D01*
X113556073Y-145224328D02*
X113365597Y-145319566D01*
X113365597Y-145319566D02*
X113270359Y-145414804D01*
X113270359Y-145414804D02*
X113175121Y-145605281D01*
X113175121Y-145605281D02*
X113175121Y-146176709D01*
X113175121Y-146176709D02*
X113270359Y-146367185D01*
X113270359Y-146367185D02*
X113365597Y-146462424D01*
X113365597Y-146462424D02*
X113556073Y-146557662D01*
X113556073Y-146557662D02*
X113841788Y-146557662D01*
X112317978Y-145224328D02*
X112317978Y-146557662D01*
X112317978Y-145414804D02*
X112222740Y-145319566D01*
X112222740Y-145319566D02*
X112032264Y-145224328D01*
X112032264Y-145224328D02*
X111746549Y-145224328D01*
X111746549Y-145224328D02*
X111556073Y-145319566D01*
X111556073Y-145319566D02*
X111460835Y-145510043D01*
X111460835Y-145510043D02*
X111460835Y-146557662D01*
X173175125Y-149777550D02*
X173175125Y-147777550D01*
X172032268Y-149777550D02*
X172889411Y-148634692D01*
X172032268Y-147777550D02*
X173175125Y-148920407D01*
X170413220Y-149682312D02*
X170603696Y-149777550D01*
X170603696Y-149777550D02*
X170984649Y-149777550D01*
X170984649Y-149777550D02*
X171175125Y-149682312D01*
X171175125Y-149682312D02*
X171270363Y-149491835D01*
X171270363Y-149491835D02*
X171270363Y-148729931D01*
X171270363Y-148729931D02*
X171175125Y-148539454D01*
X171175125Y-148539454D02*
X170984649Y-148444216D01*
X170984649Y-148444216D02*
X170603696Y-148444216D01*
X170603696Y-148444216D02*
X170413220Y-148539454D01*
X170413220Y-148539454D02*
X170317982Y-148729931D01*
X170317982Y-148729931D02*
X170317982Y-148920407D01*
X170317982Y-148920407D02*
X171270363Y-149110883D01*
X169175125Y-149777550D02*
X169365601Y-149682312D01*
X169365601Y-149682312D02*
X169460839Y-149491835D01*
X169460839Y-149491835D02*
X169460839Y-147777550D01*
X168127506Y-149777550D02*
X168317982Y-149682312D01*
X168317982Y-149682312D02*
X168413220Y-149491835D01*
X168413220Y-149491835D02*
X168413220Y-147777550D01*
X166603696Y-149682312D02*
X166794172Y-149777550D01*
X166794172Y-149777550D02*
X167175125Y-149777550D01*
X167175125Y-149777550D02*
X167365601Y-149682312D01*
X167365601Y-149682312D02*
X167460839Y-149491835D01*
X167460839Y-149491835D02*
X167460839Y-148729931D01*
X167460839Y-148729931D02*
X167365601Y-148539454D01*
X167365601Y-148539454D02*
X167175125Y-148444216D01*
X167175125Y-148444216D02*
X166794172Y-148444216D01*
X166794172Y-148444216D02*
X166603696Y-148539454D01*
X166603696Y-148539454D02*
X166508458Y-148729931D01*
X166508458Y-148729931D02*
X166508458Y-148920407D01*
X166508458Y-148920407D02*
X167460839Y-149110883D01*
X165651315Y-148444216D02*
X165651315Y-149777550D01*
X165651315Y-148634692D02*
X165556077Y-148539454D01*
X165556077Y-148539454D02*
X165365601Y-148444216D01*
X165365601Y-148444216D02*
X165079886Y-148444216D01*
X165079886Y-148444216D02*
X164889410Y-148539454D01*
X164889410Y-148539454D02*
X164794172Y-148729931D01*
X164794172Y-148729931D02*
X164794172Y-149777550D01*
X161937029Y-148825169D02*
X161937029Y-149777550D01*
X162603695Y-147777550D02*
X161937029Y-148825169D01*
X161937029Y-148825169D02*
X161270362Y-147777550D01*
X159746552Y-148444216D02*
X159746552Y-149777550D01*
X160603695Y-148444216D02*
X160603695Y-149491835D01*
X160603695Y-149491835D02*
X160508457Y-149682312D01*
X160508457Y-149682312D02*
X160317981Y-149777550D01*
X160317981Y-149777550D02*
X160032266Y-149777550D01*
X160032266Y-149777550D02*
X159841790Y-149682312D01*
X159841790Y-149682312D02*
X159746552Y-149587073D01*
X172032268Y-152806961D02*
X172127506Y-152902200D01*
X172127506Y-152902200D02*
X172413220Y-152997438D01*
X172413220Y-152997438D02*
X172603696Y-152997438D01*
X172603696Y-152997438D02*
X172889411Y-152902200D01*
X172889411Y-152902200D02*
X173079887Y-152711723D01*
X173079887Y-152711723D02*
X173175125Y-152521247D01*
X173175125Y-152521247D02*
X173270363Y-152140295D01*
X173270363Y-152140295D02*
X173270363Y-151854580D01*
X173270363Y-151854580D02*
X173175125Y-151473628D01*
X173175125Y-151473628D02*
X173079887Y-151283152D01*
X173079887Y-151283152D02*
X172889411Y-151092676D01*
X172889411Y-151092676D02*
X172603696Y-150997438D01*
X172603696Y-150997438D02*
X172413220Y-150997438D01*
X172413220Y-150997438D02*
X172127506Y-151092676D01*
X172127506Y-151092676D02*
X172032268Y-151187914D01*
X170889411Y-152997438D02*
X171079887Y-152902200D01*
X171079887Y-152902200D02*
X171175125Y-152806961D01*
X171175125Y-152806961D02*
X171270363Y-152616485D01*
X171270363Y-152616485D02*
X171270363Y-152045057D01*
X171270363Y-152045057D02*
X171175125Y-151854580D01*
X171175125Y-151854580D02*
X171079887Y-151759342D01*
X171079887Y-151759342D02*
X170889411Y-151664104D01*
X170889411Y-151664104D02*
X170603696Y-151664104D01*
X170603696Y-151664104D02*
X170413220Y-151759342D01*
X170413220Y-151759342D02*
X170317982Y-151854580D01*
X170317982Y-151854580D02*
X170222744Y-152045057D01*
X170222744Y-152045057D02*
X170222744Y-152616485D01*
X170222744Y-152616485D02*
X170317982Y-152806961D01*
X170317982Y-152806961D02*
X170413220Y-152902200D01*
X170413220Y-152902200D02*
X170603696Y-152997438D01*
X170603696Y-152997438D02*
X170889411Y-152997438D01*
X169460839Y-152902200D02*
X169270363Y-152997438D01*
X169270363Y-152997438D02*
X168889411Y-152997438D01*
X168889411Y-152997438D02*
X168698934Y-152902200D01*
X168698934Y-152902200D02*
X168603696Y-152711723D01*
X168603696Y-152711723D02*
X168603696Y-152616485D01*
X168603696Y-152616485D02*
X168698934Y-152426009D01*
X168698934Y-152426009D02*
X168889411Y-152330771D01*
X168889411Y-152330771D02*
X169175125Y-152330771D01*
X169175125Y-152330771D02*
X169365601Y-152235533D01*
X169365601Y-152235533D02*
X169460839Y-152045057D01*
X169460839Y-152045057D02*
X169460839Y-151949819D01*
X169460839Y-151949819D02*
X169365601Y-151759342D01*
X169365601Y-151759342D02*
X169175125Y-151664104D01*
X169175125Y-151664104D02*
X168889411Y-151664104D01*
X168889411Y-151664104D02*
X168698934Y-151759342D01*
X168032267Y-151664104D02*
X167270363Y-151664104D01*
X167746553Y-150997438D02*
X167746553Y-152711723D01*
X167746553Y-152711723D02*
X167651315Y-152902200D01*
X167651315Y-152902200D02*
X167460839Y-152997438D01*
X167460839Y-152997438D02*
X167270363Y-152997438D01*
X166603696Y-152235533D02*
X165079887Y-152235533D01*
X163365601Y-152902200D02*
X163556077Y-152997438D01*
X163556077Y-152997438D02*
X163937030Y-152997438D01*
X163937030Y-152997438D02*
X164127506Y-152902200D01*
X164127506Y-152902200D02*
X164222744Y-152711723D01*
X164222744Y-152711723D02*
X164222744Y-151949819D01*
X164222744Y-151949819D02*
X164127506Y-151759342D01*
X164127506Y-151759342D02*
X163937030Y-151664104D01*
X163937030Y-151664104D02*
X163556077Y-151664104D01*
X163556077Y-151664104D02*
X163365601Y-151759342D01*
X163365601Y-151759342D02*
X163270363Y-151949819D01*
X163270363Y-151949819D02*
X163270363Y-152140295D01*
X163270363Y-152140295D02*
X164222744Y-152330771D01*
X162698934Y-151664104D02*
X161937030Y-151664104D01*
X162413220Y-152997438D02*
X162413220Y-151283152D01*
X162413220Y-151283152D02*
X162317982Y-151092676D01*
X162317982Y-151092676D02*
X162127506Y-150997438D01*
X162127506Y-150997438D02*
X161937030Y-150997438D01*
X161556077Y-151664104D02*
X160794173Y-151664104D01*
X161270363Y-152997438D02*
X161270363Y-151283152D01*
X161270363Y-151283152D02*
X161175125Y-151092676D01*
X161175125Y-151092676D02*
X160984649Y-150997438D01*
X160984649Y-150997438D02*
X160794173Y-150997438D01*
X159365601Y-152902200D02*
X159556077Y-152997438D01*
X159556077Y-152997438D02*
X159937030Y-152997438D01*
X159937030Y-152997438D02*
X160127506Y-152902200D01*
X160127506Y-152902200D02*
X160222744Y-152711723D01*
X160222744Y-152711723D02*
X160222744Y-151949819D01*
X160222744Y-151949819D02*
X160127506Y-151759342D01*
X160127506Y-151759342D02*
X159937030Y-151664104D01*
X159937030Y-151664104D02*
X159556077Y-151664104D01*
X159556077Y-151664104D02*
X159365601Y-151759342D01*
X159365601Y-151759342D02*
X159270363Y-151949819D01*
X159270363Y-151949819D02*
X159270363Y-152140295D01*
X159270363Y-152140295D02*
X160222744Y-152330771D01*
X157556077Y-152902200D02*
X157746553Y-152997438D01*
X157746553Y-152997438D02*
X158127506Y-152997438D01*
X158127506Y-152997438D02*
X158317982Y-152902200D01*
X158317982Y-152902200D02*
X158413220Y-152806961D01*
X158413220Y-152806961D02*
X158508458Y-152616485D01*
X158508458Y-152616485D02*
X158508458Y-152045057D01*
X158508458Y-152045057D02*
X158413220Y-151854580D01*
X158413220Y-151854580D02*
X158317982Y-151759342D01*
X158317982Y-151759342D02*
X158127506Y-151664104D01*
X158127506Y-151664104D02*
X157746553Y-151664104D01*
X157746553Y-151664104D02*
X157556077Y-151759342D01*
X156984648Y-151664104D02*
X156222744Y-151664104D01*
X156698934Y-150997438D02*
X156698934Y-152711723D01*
X156698934Y-152711723D02*
X156603696Y-152902200D01*
X156603696Y-152902200D02*
X156413220Y-152997438D01*
X156413220Y-152997438D02*
X156222744Y-152997438D01*
X155556077Y-152997438D02*
X155556077Y-151664104D01*
X155556077Y-150997438D02*
X155651315Y-151092676D01*
X155651315Y-151092676D02*
X155556077Y-151187914D01*
X155556077Y-151187914D02*
X155460839Y-151092676D01*
X155460839Y-151092676D02*
X155556077Y-150997438D01*
X155556077Y-150997438D02*
X155556077Y-151187914D01*
X154794172Y-151664104D02*
X154317982Y-152997438D01*
X154317982Y-152997438D02*
X153841791Y-151664104D01*
X152317981Y-152902200D02*
X152508457Y-152997438D01*
X152508457Y-152997438D02*
X152889410Y-152997438D01*
X152889410Y-152997438D02*
X153079886Y-152902200D01*
X153079886Y-152902200D02*
X153175124Y-152711723D01*
X153175124Y-152711723D02*
X153175124Y-151949819D01*
X153175124Y-151949819D02*
X153079886Y-151759342D01*
X153079886Y-151759342D02*
X152889410Y-151664104D01*
X152889410Y-151664104D02*
X152508457Y-151664104D01*
X152508457Y-151664104D02*
X152317981Y-151759342D01*
X152317981Y-151759342D02*
X152222743Y-151949819D01*
X152222743Y-151949819D02*
X152222743Y-152140295D01*
X152222743Y-152140295D02*
X153175124Y-152330771D01*
X149937028Y-152902200D02*
X149746552Y-152997438D01*
X149746552Y-152997438D02*
X149365600Y-152997438D01*
X149365600Y-152997438D02*
X149175123Y-152902200D01*
X149175123Y-152902200D02*
X149079885Y-152711723D01*
X149079885Y-152711723D02*
X149079885Y-152616485D01*
X149079885Y-152616485D02*
X149175123Y-152426009D01*
X149175123Y-152426009D02*
X149365600Y-152330771D01*
X149365600Y-152330771D02*
X149651314Y-152330771D01*
X149651314Y-152330771D02*
X149841790Y-152235533D01*
X149841790Y-152235533D02*
X149937028Y-152045057D01*
X149937028Y-152045057D02*
X149937028Y-151949819D01*
X149937028Y-151949819D02*
X149841790Y-151759342D01*
X149841790Y-151759342D02*
X149651314Y-151664104D01*
X149651314Y-151664104D02*
X149365600Y-151664104D01*
X149365600Y-151664104D02*
X149175123Y-151759342D01*
X147937028Y-152997438D02*
X148127504Y-152902200D01*
X148127504Y-152902200D02*
X148222742Y-152806961D01*
X148222742Y-152806961D02*
X148317980Y-152616485D01*
X148317980Y-152616485D02*
X148317980Y-152045057D01*
X148317980Y-152045057D02*
X148222742Y-151854580D01*
X148222742Y-151854580D02*
X148127504Y-151759342D01*
X148127504Y-151759342D02*
X147937028Y-151664104D01*
X147937028Y-151664104D02*
X147651313Y-151664104D01*
X147651313Y-151664104D02*
X147460837Y-151759342D01*
X147460837Y-151759342D02*
X147365599Y-151854580D01*
X147365599Y-151854580D02*
X147270361Y-152045057D01*
X147270361Y-152045057D02*
X147270361Y-152616485D01*
X147270361Y-152616485D02*
X147365599Y-152806961D01*
X147365599Y-152806961D02*
X147460837Y-152902200D01*
X147460837Y-152902200D02*
X147651313Y-152997438D01*
X147651313Y-152997438D02*
X147937028Y-152997438D01*
X146413218Y-152997438D02*
X146413218Y-151664104D01*
X146413218Y-150997438D02*
X146508456Y-151092676D01*
X146508456Y-151092676D02*
X146413218Y-151187914D01*
X146413218Y-151187914D02*
X146317980Y-151092676D01*
X146317980Y-151092676D02*
X146413218Y-150997438D01*
X146413218Y-150997438D02*
X146413218Y-151187914D01*
X145175123Y-152997438D02*
X145365599Y-152902200D01*
X145365599Y-152902200D02*
X145460837Y-152711723D01*
X145460837Y-152711723D02*
X145460837Y-150997438D01*
X142889408Y-152997438D02*
X142889408Y-151664104D01*
X142889408Y-151854580D02*
X142794170Y-151759342D01*
X142794170Y-151759342D02*
X142603694Y-151664104D01*
X142603694Y-151664104D02*
X142317979Y-151664104D01*
X142317979Y-151664104D02*
X142127503Y-151759342D01*
X142127503Y-151759342D02*
X142032265Y-151949819D01*
X142032265Y-151949819D02*
X142032265Y-152997438D01*
X142032265Y-151949819D02*
X141937027Y-151759342D01*
X141937027Y-151759342D02*
X141746551Y-151664104D01*
X141746551Y-151664104D02*
X141460837Y-151664104D01*
X141460837Y-151664104D02*
X141270360Y-151759342D01*
X141270360Y-151759342D02*
X141175122Y-151949819D01*
X141175122Y-151949819D02*
X141175122Y-152997438D01*
X139937027Y-152997438D02*
X140127503Y-152902200D01*
X140127503Y-152902200D02*
X140222741Y-152806961D01*
X140222741Y-152806961D02*
X140317979Y-152616485D01*
X140317979Y-152616485D02*
X140317979Y-152045057D01*
X140317979Y-152045057D02*
X140222741Y-151854580D01*
X140222741Y-151854580D02*
X140127503Y-151759342D01*
X140127503Y-151759342D02*
X139937027Y-151664104D01*
X139937027Y-151664104D02*
X139651312Y-151664104D01*
X139651312Y-151664104D02*
X139460836Y-151759342D01*
X139460836Y-151759342D02*
X139365598Y-151854580D01*
X139365598Y-151854580D02*
X139270360Y-152045057D01*
X139270360Y-152045057D02*
X139270360Y-152616485D01*
X139270360Y-152616485D02*
X139365598Y-152806961D01*
X139365598Y-152806961D02*
X139460836Y-152902200D01*
X139460836Y-152902200D02*
X139651312Y-152997438D01*
X139651312Y-152997438D02*
X139937027Y-152997438D01*
X138413217Y-152997438D02*
X138413217Y-151664104D01*
X138413217Y-150997438D02*
X138508455Y-151092676D01*
X138508455Y-151092676D02*
X138413217Y-151187914D01*
X138413217Y-151187914D02*
X138317979Y-151092676D01*
X138317979Y-151092676D02*
X138413217Y-150997438D01*
X138413217Y-150997438D02*
X138413217Y-151187914D01*
X137556074Y-152902200D02*
X137365598Y-152997438D01*
X137365598Y-152997438D02*
X136984646Y-152997438D01*
X136984646Y-152997438D02*
X136794169Y-152902200D01*
X136794169Y-152902200D02*
X136698931Y-152711723D01*
X136698931Y-152711723D02*
X136698931Y-152616485D01*
X136698931Y-152616485D02*
X136794169Y-152426009D01*
X136794169Y-152426009D02*
X136984646Y-152330771D01*
X136984646Y-152330771D02*
X137270360Y-152330771D01*
X137270360Y-152330771D02*
X137460836Y-152235533D01*
X137460836Y-152235533D02*
X137556074Y-152045057D01*
X137556074Y-152045057D02*
X137556074Y-151949819D01*
X137556074Y-151949819D02*
X137460836Y-151759342D01*
X137460836Y-151759342D02*
X137270360Y-151664104D01*
X137270360Y-151664104D02*
X136984646Y-151664104D01*
X136984646Y-151664104D02*
X136794169Y-151759342D01*
X136127502Y-151664104D02*
X135365598Y-151664104D01*
X135841788Y-150997438D02*
X135841788Y-152711723D01*
X135841788Y-152711723D02*
X135746550Y-152902200D01*
X135746550Y-152902200D02*
X135556074Y-152997438D01*
X135556074Y-152997438D02*
X135365598Y-152997438D01*
X133841788Y-151664104D02*
X133841788Y-152997438D01*
X134698931Y-151664104D02*
X134698931Y-152711723D01*
X134698931Y-152711723D02*
X134603693Y-152902200D01*
X134603693Y-152902200D02*
X134413217Y-152997438D01*
X134413217Y-152997438D02*
X134127502Y-152997438D01*
X134127502Y-152997438D02*
X133937026Y-152902200D01*
X133937026Y-152902200D02*
X133841788Y-152806961D01*
X132889407Y-152997438D02*
X132889407Y-151664104D01*
X132889407Y-152045057D02*
X132794169Y-151854580D01*
X132794169Y-151854580D02*
X132698931Y-151759342D01*
X132698931Y-151759342D02*
X132508455Y-151664104D01*
X132508455Y-151664104D02*
X132317978Y-151664104D01*
X130889407Y-152902200D02*
X131079883Y-152997438D01*
X131079883Y-152997438D02*
X131460836Y-152997438D01*
X131460836Y-152997438D02*
X131651312Y-152902200D01*
X131651312Y-152902200D02*
X131746550Y-152711723D01*
X131746550Y-152711723D02*
X131746550Y-151949819D01*
X131746550Y-151949819D02*
X131651312Y-151759342D01*
X131651312Y-151759342D02*
X131460836Y-151664104D01*
X131460836Y-151664104D02*
X131079883Y-151664104D01*
X131079883Y-151664104D02*
X130889407Y-151759342D01*
X130889407Y-151759342D02*
X130794169Y-151949819D01*
X130794169Y-151949819D02*
X130794169Y-152140295D01*
X130794169Y-152140295D02*
X131746550Y-152330771D01*
X128508454Y-152902200D02*
X128317978Y-152997438D01*
X128317978Y-152997438D02*
X127937026Y-152997438D01*
X127937026Y-152997438D02*
X127746549Y-152902200D01*
X127746549Y-152902200D02*
X127651311Y-152711723D01*
X127651311Y-152711723D02*
X127651311Y-152616485D01*
X127651311Y-152616485D02*
X127746549Y-152426009D01*
X127746549Y-152426009D02*
X127937026Y-152330771D01*
X127937026Y-152330771D02*
X128222740Y-152330771D01*
X128222740Y-152330771D02*
X128413216Y-152235533D01*
X128413216Y-152235533D02*
X128508454Y-152045057D01*
X128508454Y-152045057D02*
X128508454Y-151949819D01*
X128508454Y-151949819D02*
X128413216Y-151759342D01*
X128413216Y-151759342D02*
X128222740Y-151664104D01*
X128222740Y-151664104D02*
X127937026Y-151664104D01*
X127937026Y-151664104D02*
X127746549Y-151759342D01*
X126032263Y-152902200D02*
X126222739Y-152997438D01*
X126222739Y-152997438D02*
X126603692Y-152997438D01*
X126603692Y-152997438D02*
X126794168Y-152902200D01*
X126794168Y-152902200D02*
X126889406Y-152711723D01*
X126889406Y-152711723D02*
X126889406Y-151949819D01*
X126889406Y-151949819D02*
X126794168Y-151759342D01*
X126794168Y-151759342D02*
X126603692Y-151664104D01*
X126603692Y-151664104D02*
X126222739Y-151664104D01*
X126222739Y-151664104D02*
X126032263Y-151759342D01*
X126032263Y-151759342D02*
X125937025Y-151949819D01*
X125937025Y-151949819D02*
X125937025Y-152140295D01*
X125937025Y-152140295D02*
X126889406Y-152330771D01*
X125079882Y-151664104D02*
X125079882Y-152997438D01*
X125079882Y-151854580D02*
X124984644Y-151759342D01*
X124984644Y-151759342D02*
X124794168Y-151664104D01*
X124794168Y-151664104D02*
X124508453Y-151664104D01*
X124508453Y-151664104D02*
X124317977Y-151759342D01*
X124317977Y-151759342D02*
X124222739Y-151949819D01*
X124222739Y-151949819D02*
X124222739Y-152997438D01*
X123365596Y-152902200D02*
X123175120Y-152997438D01*
X123175120Y-152997438D02*
X122794168Y-152997438D01*
X122794168Y-152997438D02*
X122603691Y-152902200D01*
X122603691Y-152902200D02*
X122508453Y-152711723D01*
X122508453Y-152711723D02*
X122508453Y-152616485D01*
X122508453Y-152616485D02*
X122603691Y-152426009D01*
X122603691Y-152426009D02*
X122794168Y-152330771D01*
X122794168Y-152330771D02*
X123079882Y-152330771D01*
X123079882Y-152330771D02*
X123270358Y-152235533D01*
X123270358Y-152235533D02*
X123365596Y-152045057D01*
X123365596Y-152045057D02*
X123365596Y-151949819D01*
X123365596Y-151949819D02*
X123270358Y-151759342D01*
X123270358Y-151759342D02*
X123079882Y-151664104D01*
X123079882Y-151664104D02*
X122794168Y-151664104D01*
X122794168Y-151664104D02*
X122603691Y-151759342D01*
X121365596Y-152997438D02*
X121556072Y-152902200D01*
X121556072Y-152902200D02*
X121651310Y-152806961D01*
X121651310Y-152806961D02*
X121746548Y-152616485D01*
X121746548Y-152616485D02*
X121746548Y-152045057D01*
X121746548Y-152045057D02*
X121651310Y-151854580D01*
X121651310Y-151854580D02*
X121556072Y-151759342D01*
X121556072Y-151759342D02*
X121365596Y-151664104D01*
X121365596Y-151664104D02*
X121079881Y-151664104D01*
X121079881Y-151664104D02*
X120889405Y-151759342D01*
X120889405Y-151759342D02*
X120794167Y-151854580D01*
X120794167Y-151854580D02*
X120698929Y-152045057D01*
X120698929Y-152045057D02*
X120698929Y-152616485D01*
X120698929Y-152616485D02*
X120794167Y-152806961D01*
X120794167Y-152806961D02*
X120889405Y-152902200D01*
X120889405Y-152902200D02*
X121079881Y-152997438D01*
X121079881Y-152997438D02*
X121365596Y-152997438D01*
X119841786Y-152997438D02*
X119841786Y-151664104D01*
X119841786Y-152045057D02*
X119746548Y-151854580D01*
X119746548Y-151854580D02*
X119651310Y-151759342D01*
X119651310Y-151759342D02*
X119460834Y-151664104D01*
X119460834Y-151664104D02*
X119270357Y-151664104D01*
X116222738Y-152997438D02*
X116222738Y-151949819D01*
X116222738Y-151949819D02*
X116317976Y-151759342D01*
X116317976Y-151759342D02*
X116508452Y-151664104D01*
X116508452Y-151664104D02*
X116889405Y-151664104D01*
X116889405Y-151664104D02*
X117079881Y-151759342D01*
X116222738Y-152902200D02*
X116413214Y-152997438D01*
X116413214Y-152997438D02*
X116889405Y-152997438D01*
X116889405Y-152997438D02*
X117079881Y-152902200D01*
X117079881Y-152902200D02*
X117175119Y-152711723D01*
X117175119Y-152711723D02*
X117175119Y-152521247D01*
X117175119Y-152521247D02*
X117079881Y-152330771D01*
X117079881Y-152330771D02*
X116889405Y-152235533D01*
X116889405Y-152235533D02*
X116413214Y-152235533D01*
X116413214Y-152235533D02*
X116222738Y-152140295D01*
X115270357Y-152997438D02*
X115270357Y-151664104D01*
X115270357Y-152045057D02*
X115175119Y-151854580D01*
X115175119Y-151854580D02*
X115079881Y-151759342D01*
X115079881Y-151759342D02*
X114889405Y-151664104D01*
X114889405Y-151664104D02*
X114698928Y-151664104D01*
X114032262Y-152997438D02*
X114032262Y-151664104D01*
X114032262Y-152045057D02*
X113937024Y-151854580D01*
X113937024Y-151854580D02*
X113841786Y-151759342D01*
X113841786Y-151759342D02*
X113651310Y-151664104D01*
X113651310Y-151664104D02*
X113460833Y-151664104D01*
X111937024Y-152997438D02*
X111937024Y-151949819D01*
X111937024Y-151949819D02*
X112032262Y-151759342D01*
X112032262Y-151759342D02*
X112222738Y-151664104D01*
X112222738Y-151664104D02*
X112603691Y-151664104D01*
X112603691Y-151664104D02*
X112794167Y-151759342D01*
X111937024Y-152902200D02*
X112127500Y-152997438D01*
X112127500Y-152997438D02*
X112603691Y-152997438D01*
X112603691Y-152997438D02*
X112794167Y-152902200D01*
X112794167Y-152902200D02*
X112889405Y-152711723D01*
X112889405Y-152711723D02*
X112889405Y-152521247D01*
X112889405Y-152521247D02*
X112794167Y-152330771D01*
X112794167Y-152330771D02*
X112603691Y-152235533D01*
X112603691Y-152235533D02*
X112127500Y-152235533D01*
X112127500Y-152235533D02*
X111937024Y-152140295D01*
X111175119Y-151664104D02*
X110698929Y-152997438D01*
X110222738Y-151664104D02*
X110698929Y-152997438D01*
X110698929Y-152997438D02*
X110889405Y-153473628D01*
X110889405Y-153473628D02*
X110984643Y-153568866D01*
X110984643Y-153568866D02*
X111175119Y-153664104D01*
M02*
